<svg width="52" height="28" viewBox="0 0 52 28" fill="none" xmlns="http://www.w3.org/2000/svg">
<path fill-rule="evenodd" clip-rule="evenodd" d="M50.5668 14.5582C46.6979 14.9451 38.5132 17.9449 36.5389 26.7635L35.5035 26.5317C37.031 19.709 42.0096 16.1628 46.2003 14.5626L1.4322 14.5626L1.4322 14.5608L1.4314 14.5608L1.4314 13.4998L46.2014 13.4998C42.0107 11.8996 37.032 8.35343 35.5046 1.53076L36.54 1.29896C38.5143 10.1175 46.699 13.1173 50.5679 13.5042L50.541 14.0416L50.5668 14.5582Z" fill="#0E0F18"/>
<path d="M36.5389 26.7635L37.1891 26.909C37.1087 27.2681 36.7524 27.494 36.3934 27.4136L36.5389 26.7635ZM50.5668 14.5582L51.2322 14.525C51.2499 14.8796 50.9864 15.1858 50.6331 15.2211L50.5668 14.5582ZM35.5035 26.5317L35.358 27.1818C35.1856 27.1432 35.0355 27.0377 34.9409 26.8885C34.8463 26.7393 34.8148 26.5586 34.8534 26.3861L35.5035 26.5317ZM46.2003 14.5626L46.2003 13.8964C46.5217 13.8964 46.7972 14.1258 46.8555 14.4418C46.9138 14.7578 46.7382 15.0704 46.438 15.185L46.2003 14.5626ZM1.4322 14.5626L1.4322 15.2288C1.2555 15.2288 1.08605 15.1587 0.961108 15.0337C0.836168 14.9088 0.765977 14.7393 0.765977 14.5626L1.4322 14.5626ZM1.4322 14.5608L1.4322 13.8946C1.60889 13.8946 1.77834 13.9648 1.90328 14.0898C2.02822 14.2147 2.09841 14.3842 2.09841 14.5608L1.4322 14.5608ZM1.4314 14.5608L1.4314 15.2271C1.06346 15.2271 0.765182 14.9288 0.765182 14.5608L1.4314 14.5608ZM1.4314 13.4998L0.765181 13.4998C0.765181 13.3231 0.835372 13.1537 0.960312 13.0287C1.08525 12.9038 1.25471 12.8336 1.4314 12.8336L1.4314 13.4998ZM46.2014 13.4998L46.439 12.8774C46.7392 12.9921 46.9148 13.3046 46.8565 13.6207C46.7982 13.9367 46.5227 14.166 46.2014 14.166L46.2014 13.4998ZM35.5046 1.53076L34.8545 1.67632C34.8158 1.50389 34.8473 1.32319 34.9419 1.17398C35.0366 1.02476 35.1866 0.919242 35.359 0.88064L35.5046 1.53076ZM36.54 1.29896L36.3944 0.648836C36.7535 0.568451 37.1097 0.794356 37.1901 1.15341L36.54 1.29896ZM50.5679 13.5042L50.6341 12.8413C50.9874 12.8767 51.2509 13.1828 51.2332 13.5374L50.5679 13.5042ZM50.541 14.0416L49.8757 14.0748C49.8746 14.0527 49.8746 14.0305 49.8757 14.0084L50.541 14.0416ZM35.8888 26.6179C37.9531 17.3975 46.4933 14.296 50.5005 13.8953L50.6331 15.2211C46.9025 15.5942 39.0734 18.4924 37.1891 26.909L35.8888 26.6179ZM35.6491 25.8816L36.6845 26.1134L36.3934 27.4136L35.358 27.1818L35.6491 25.8816ZM46.438 15.185C42.378 16.7353 37.6165 20.1432 36.1537 26.6772L34.8534 26.3861C36.4455 19.2748 41.6413 15.5904 45.9627 13.9402L46.438 15.185ZM46.2003 15.2288L1.4322 15.2288L1.4322 13.8964L46.2003 13.8964L46.2003 15.2288ZM0.765977 14.5626L0.765977 14.5608L2.09841 14.5608L2.09841 14.5626L0.765977 14.5626ZM1.4314 13.8946L1.4322 13.8946L1.4322 15.2271L1.4314 15.2271L1.4314 13.8946ZM2.09762 13.4998L2.09762 14.5608L0.765182 14.5608L0.765181 13.4998L2.09762 13.4998ZM46.2014 14.166L1.4314 14.166L1.4314 12.8336L46.2014 12.8336L46.2014 14.166ZM45.9637 14.1222C41.6424 12.4721 36.4465 8.78763 34.8545 1.67632L36.1547 1.38521C37.6175 7.91923 42.379 11.3271 46.439 12.8774L45.9637 14.1222ZM35.359 0.88064L36.3944 0.648836L36.6855 1.94909L35.6501 2.18089L35.359 0.88064ZM37.1901 1.15341C39.0744 9.57007 46.9035 12.4683 50.6341 12.8413L50.5016 14.1672C46.4944 13.7664 37.9541 10.6649 35.8898 1.44451L37.1901 1.15341ZM51.2332 13.5374L51.2064 14.0748L49.8757 14.0084L49.9025 13.4711L51.2332 13.5374ZM49.9014 14.5914L49.8757 14.0748L51.2064 14.0084L51.2322 14.525L49.9014 14.5914Z" fill="#0E0F18"/>
</svg>
