<svg width="52" height="28" viewBox="0 0 52 28" fill="none" xmlns="http://www.w3.org/2000/svg">
<path fill-rule="evenodd" clip-rule="evenodd" d="M1.43295 14.5581C5.30184 14.945 13.4865 17.9449 15.4608 26.7634L16.4962 26.5316C14.9688 19.709 9.99011 16.1628 5.79945 14.5626L50.5676 14.5626L50.5676 14.5608L50.5684 14.5608L50.5684 13.4998L5.79841 13.4998C9.98907 11.8995 14.9677 8.35337 16.4952 1.5307L15.4598 1.2989C13.4855 10.1174 5.30081 13.1173 1.43191 13.5042L1.45871 14.0416L1.43295 14.5581Z" fill="#0E0F18"/>
<path d="M15.4608 26.7634L14.8107 26.909C14.8911 27.268 15.2473 27.4939 15.6064 27.4135L15.4608 26.7634ZM1.43295 14.5581L0.767556 14.525C0.749871 14.8796 1.01338 15.1857 1.36665 15.2211L1.43295 14.5581ZM16.4962 26.5316L16.6418 27.1817C16.8142 27.1431 16.9642 27.0376 17.0588 26.8884C17.1535 26.7392 17.185 26.5585 17.1463 26.3861L16.4962 26.5316ZM5.79945 14.5626L5.79945 13.8963C5.47811 13.8963 5.20256 14.1257 5.14428 14.4417C5.086 14.7577 5.26159 15.0703 5.56179 15.185L5.79945 14.5626ZM50.5676 14.5626L50.5676 15.2288C50.7443 15.2288 50.9137 15.1586 51.0387 15.0337C51.1636 14.9087 51.2338 14.7393 51.2338 14.5626L50.5676 14.5626ZM50.5676 14.5608L50.5676 13.8946C50.3909 13.8946 50.2214 13.9648 50.0965 14.0897C49.9715 14.2146 49.9013 14.3841 49.9013 14.5608L50.5676 14.5608ZM50.5684 14.5608L50.5684 15.227C50.9363 15.227 51.2346 14.9287 51.2346 14.5608L50.5684 14.5608ZM50.5684 13.4998L51.2346 13.4998C51.2346 13.3231 51.1644 13.1536 51.0394 13.0287C50.9145 12.9037 50.7451 12.8335 50.5684 12.8335L50.5684 13.4998ZM5.79841 13.4998L5.56075 12.8774C5.26055 12.992 5.08495 13.3046 5.14324 13.6206C5.20152 13.9366 5.47707 14.166 5.79841 14.166L5.79841 13.4998ZM16.4952 1.5307L17.1453 1.67625C17.2257 1.3172 16.9998 0.960963 16.6407 0.880578L16.4952 1.5307ZM15.4598 1.2989L15.6053 0.648774C15.4329 0.610171 15.2522 0.641644 15.103 0.73627C14.9538 0.830897 14.8483 0.980923 14.8097 1.15335L15.4598 1.2989ZM1.43191 13.5042L1.36562 12.8413C1.01234 12.8766 0.748834 13.1828 0.766519 13.5374L1.43191 13.5042ZM1.45871 14.0416L2.1241 14.0747C2.12521 14.0526 2.12521 14.0305 2.1241 14.0084L1.45871 14.0416ZM16.111 26.6179C14.0467 17.3974 5.50641 14.2959 1.49924 13.8952L1.36665 15.2211C5.09728 15.5941 12.9264 18.4923 14.8107 26.909L16.111 26.6179ZM16.3507 25.8815L15.3153 26.1133L15.6064 27.4135L16.6418 27.1817L16.3507 25.8815ZM5.56179 15.185C9.62178 16.7353 14.3833 20.1432 15.8461 26.6772L17.1463 26.3861C15.5543 19.2748 10.3584 15.5903 6.03711 13.9402L5.56179 15.185ZM5.79945 15.2288L50.5676 15.2288L50.5676 13.8964L5.79945 13.8963L5.79945 15.2288ZM51.2338 14.5626L51.2338 14.5608L49.9013 14.5608L49.9013 14.5626L51.2338 14.5626ZM50.5684 13.8946L50.5676 13.8946L50.5676 15.227L50.5684 15.227L50.5684 13.8946ZM49.9021 13.4998L49.9021 14.5608L51.2346 14.5608L51.2346 13.4998L49.9021 13.4998ZM5.79841 14.166L50.5684 14.166L50.5684 12.8335L5.79841 12.8335L5.79841 14.166ZM6.03607 14.1221C10.3574 12.472 15.5532 8.78757 17.1453 1.67625L15.8451 1.38515C14.3822 7.91917 9.62074 11.327 5.56075 12.8774L6.03607 14.1221ZM16.6407 0.880578L15.6053 0.648774L15.3142 1.94902L16.3496 2.18083L16.6407 0.880578ZM14.8097 1.15335C12.9253 9.57001 5.09624 12.4682 1.36562 12.8413L1.4982 14.1671C5.50538 13.7664 14.0456 10.6649 16.1099 1.44445L14.8097 1.15335ZM0.766519 13.5374L0.793321 14.0747L2.1241 14.0084L2.0973 13.471L0.766519 13.5374ZM2.09834 14.5913L2.1241 14.0747L0.793321 14.0084L0.767556 14.525L2.09834 14.5913Z" fill="#0E0F18"/>
</svg>
