<svg width="120" height="120" viewBox="0 0 120 120" fill="none" xmlns="http://www.w3.org/2000/svg">
<path d="M107.439 98.482C116.701 91.927 107.931 50.4071 109.95 36.4564C112.277 23.1529 104.443 21.7925 93.2837 22.2518C83.8563 22.0623 74.4184 21.6968 64.9844 21.8049C64.9341 21.674 64.886 21.5423 64.831 21.4133L64.9464 21.6872C64.7461 21.1968 64.5895 20.6911 64.3632 20.2115C64.4012 20.3023 64.4395 20.3931 64.4782 20.484C64.3509 20.0836 64.1704 19.7021 63.9414 19.3498C67.7991 17.0645 68.1066 10.6981 63.8403 8.66698C62.5933 7.47264 57.5932 8.17164 59.963 10.2311C60.5921 10.1598 61.2293 10.2288 61.8286 10.4332C62.4279 10.6375 62.9744 10.9722 63.4288 11.4131C63.8833 11.854 64.2344 12.3901 64.4568 12.983C64.6793 13.5758 64.7675 14.2105 64.7153 14.8416C64.663 15.4726 64.4715 16.0842 64.1546 16.6323C63.8376 17.1805 63.4031 17.6516 62.8823 18.0117C62.3615 18.3718 61.7674 18.612 61.1427 18.715C60.5179 18.818 59.8781 18.7812 59.2693 18.6073C55.2814 18.0053 53.5756 12.4556 57.4593 10.4567C60.8408 9.70644 55.718 9.06537 54.9656 10.412C52.053 12.8184 53.3489 17.4239 56.3533 19.1478C55.6509 20.0522 55.0986 21.0638 54.7177 22.1438C41.769 22.6358 28.8499 23.7671 15.9044 24.231C12.561 24.3508 12.4702 29.4155 15.4061 29.6575C15.0851 50.9792 12.6567 72.9632 15.4768 94.0736C20.9038 104.616 36.412 99.759 46.1546 100.839C42.1463 103.363 35.673 106.043 34.2834 110.639C30.9718 110.773 27.6613 110.92 24.3502 111.063C25.7377 109.582 39.7796 103.338 34.1855 101.963C29.0801 103.824 24.7131 107.767 20.5833 111.223C17.2701 111.365 13.9741 111.495 10.6592 111.649C12.1307 109.539 26.5894 103.688 21.3557 101.565C21.4621 101.431 21.5303 101.271 21.5532 101.102C21.5761 100.933 21.5527 100.761 21.4855 100.604C21.4184 100.447 21.3099 100.311 21.1718 100.21C21.0336 100.11 20.8708 100.049 20.7007 100.033C15.856 99.4468 -5.13528 100.218 1.54728 110.061C4.19376 113.959 9.4744 113.653 13.6173 113.596C46.4083 112.472 79.232 111.433 112.003 109.862C126.587 108.549 118.896 94.5713 107.439 98.482ZM4.99005 103.158C9.84046 101.529 15.4018 101.912 20.4622 101.835C15.4024 104.12 10.8576 107.406 7.10171 111.495C2.5399 111.2 -0.267367 104.928 4.99005 103.158ZM108.298 100.713C106.571 102.308 97.8923 105.494 100.53 108.165C96.8293 108.288 93.1292 108.432 89.4286 108.568C91.2108 107.631 101.952 103.462 96.294 101.834C92.6081 103.297 86.5743 105.322 84.6633 108.741C81.8673 108.846 79.0709 108.942 76.2749 109.046C78.0755 107.462 91.0739 104.766 85.3331 101.036C92.2982 100.592 100.43 102.829 106.716 99.0466C106.595 99.2708 106.548 99.5276 106.581 99.7803C106.615 100.033 106.727 100.269 106.902 100.453C107.078 100.638 107.307 100.763 107.558 100.81C107.808 100.856 108.067 100.823 108.298 100.713ZM74.2234 101.989C74.2645 101.795 74.2642 101.595 74.2228 101.401C74.1813 101.207 74.0995 101.024 73.9826 100.863C77.1082 100.885 80.2339 100.969 83.3598 101.014C80.5179 102.441 70.6541 105.452 71.6613 109.214C68.3093 109.337 64.9566 109.461 61.6033 109.586C65.4428 106.711 71.5893 106.015 74.2234 101.989ZM62.1665 20.1132C62.1578 20.7178 62.2814 21.3169 62.5289 21.8687C60.6407 21.9245 58.7535 21.9888 56.8673 22.0614C57.2378 21.3575 57.4961 20.6 57.6331 19.8164C59.0767 20.3839 60.6612 20.4876 62.1665 20.1132ZM60.1286 60.9372C60.1389 61.1676 60.1434 61.3975 60.1537 61.6279C46.3271 60.1721 32.1604 58.9807 18.2989 60.7893C18.5506 50.3833 19.1466 39.8261 18.707 29.4218C32.3948 28.2154 46.1393 27.6783 59.8801 27.2573C59.5424 38.4452 59.6189 49.7656 60.1286 60.9372ZM34.4428 95.9381C29.7748 95.2048 24.181 98.2067 20.1993 95.1226C15.5992 85.323 18.9162 73.0211 18.259 62.3758C32.2687 62.3915 46.3629 62.2626 60.2492 64.261C61.2388 67.3423 59.3879 99.4686 63.1984 95.2576C62.5794 72.6864 61.8108 49.8735 61.4059 27.2095C74.3541 26.5177 87.3329 26.6365 100.266 27.5651C106.303 27.1522 106.646 31.6591 106.609 36.4566C106.991 54.2652 107.331 72.3239 106.096 90.0509C105.383 95.0418 100.835 97.0088 96.2299 96.2201C80.0859 96.0693 63.9372 96.6855 47.797 96.214C50.8635 92.5667 47.0871 86.6769 43.099 85.4288C47.7646 82.6397 47.3265 74.6243 41.8101 73.1593C36.8135 71.2218 32.8576 76.1068 40.2849 75.9214C49.5553 79.3725 37.1163 90.3768 33.7304 80.6529C33.4834 79.5303 33.5653 78.3604 33.9663 77.2833C34.3674 76.2061 35.0705 75.2674 35.9914 74.5798C36.0849 74.5207 36.1517 74.4276 36.1779 74.3202C36.2041 74.2128 36.1875 74.0994 36.1318 74.0039C36.076 73.9085 35.9853 73.8384 35.8789 73.8085C35.7724 73.7785 35.6586 73.7911 35.5612 73.8435C34.5007 74.385 33.6035 75.1991 32.9619 76.2022C32.3204 77.2053 31.9575 78.3612 31.9107 79.5511C31.864 80.7409 32.1349 81.9217 32.6958 82.9721C33.2566 84.0225 34.0871 84.9045 35.1019 85.5276C30.9776 86.4802 27.4033 91.169 28.4796 95.4409C28.5302 95.6074 28.6331 95.7531 28.7729 95.8566C28.9126 95.9602 29.082 96.0161 29.256 96.0161C29.4299 96.0161 29.5993 95.9602 29.7391 95.8566C29.8789 95.7531 29.9817 95.6074 30.0324 95.4409C30.43 92.809 31.7496 90.4038 33.756 88.6545C34.5733 87.7239 36.5122 87.6407 36.7043 86.3337C38.2015 86.8529 39.8311 86.8461 41.3239 86.3143C42.5338 86.952 43.5848 87.8537 44.399 88.9525C45.2133 90.0514 45.77 91.3193 46.028 92.6625C45.9184 93.8833 46.1662 95.1096 46.7411 96.1921C42.642 96.0845 38.5442 95.9819 34.4428 95.9381ZM39.4997 109.231C41.588 107.11 51.8104 104.256 49.3386 100.82C56.3976 100.772 63.4582 100.78 70.5204 100.843C66.3338 103.037 62.3734 105.605 58.4281 108.198C58.1782 108.354 57.9876 108.589 57.8866 108.865C57.7856 109.141 57.7802 109.444 57.8711 109.723C51.0506 109.973 44.2309 110.234 37.4119 110.506C38.1048 110.076 38.7912 109.635 39.4997 109.231ZM115.957 106.813C111.734 108.559 106.806 107.642 102.326 108.1C105.35 105.755 111.583 104.536 112.115 100.362C115.548 99.868 119.919 104.312 115.957 106.813Z" fill="#455B9E"/>
<path d="M69.6552 10.0118C70.8625 9.42108 74.3508 6.88548 71.2998 6.5332C70.2301 7.11649 68.6252 8.00739 68.2295 9.19353C68.2331 9.35885 68.2794 9.52042 68.3638 9.66259C68.4483 9.80477 68.568 9.92273 68.7114 10.005C68.8548 10.0873 69.0171 10.1312 69.1824 10.1324C69.3478 10.1336 69.5106 10.092 69.6552 10.0118Z" fill="#455B9E"/>
<path d="M71.4914 10.2116C70.6663 10.7825 69.2864 11.2555 69.1895 12.3812C69.1946 12.5835 69.2517 12.781 69.3552 12.9548C69.4588 13.1285 69.6054 13.2727 69.7809 13.3734C69.9564 13.4741 70.1548 13.5279 70.3571 13.5296C70.5594 13.5314 70.7587 13.481 70.9359 13.3834C71.6824 13.0193 72.4752 12.759 73.2922 12.6098C77.3289 11.6981 74.3398 7.97672 71.4914 10.2116Z" fill="#455B9E"/>
<path d="M73.6857 14.6713C69.8039 14.0923 68.2066 16.9298 72.8589 17.4339C76.1368 18.5002 77.5363 14.8771 73.6857 14.6713Z" fill="#455B9E"/>
<path d="M41.6977 45.1034C49.9077 42.2667 43.5373 28.6598 36.4763 33.6558C36.6663 31.5476 32.9253 32.8571 31.9652 33.727C27.8776 36.5789 29.087 42.7969 33.2072 44.9725C30.9778 45.8406 29.0402 47.3231 27.6193 49.2478C26.1984 51.1726 25.3523 53.4608 25.1792 55.847C25.0721 56.6885 25.3527 58.4919 26.5372 57.9627C27.4727 57.0522 27.0954 55.4867 27.5053 54.312C28.0179 52.4566 28.908 50.727 30.12 49.2315C31.332 47.736 32.8397 46.5069 34.5487 45.6212C36.336 46.2528 38.2797 46.2893 40.0895 45.7253C43.9256 49.2795 44.6383 54.1347 44.5463 59.0633C44.5884 59.2053 44.6664 59.3342 44.7728 59.4373C44.8791 59.5405 45.0103 59.6145 45.1536 59.6523C45.2969 59.6901 45.4475 59.6903 45.5909 59.653C45.7343 59.6156 45.8657 59.542 45.9723 59.4391C49.0409 55.0046 45.9087 47.8115 41.6977 45.1034ZM34.452 43.6659C33.4068 43.2136 32.5456 42.4208 32.0085 41.4167C31.4713 40.4125 31.29 39.256 31.4938 38.1356C31.6977 37.0152 32.2749 35.9968 33.1314 35.2463C33.9878 34.4957 35.0732 34.0572 36.2106 34.0021C35.6201 35.6518 37.6368 35.4357 38.6326 35.1473C41.4669 34.7882 43.5226 37.8812 43.1626 40.469C42.0214 43.6474 37.4166 44.9797 34.452 43.6659Z" fill="#455B9E"/>
<path d="M79.8027 63.1532C81.3027 63.8721 82.9425 64.2523 84.6058 64.2668C86.2691 64.2814 87.9152 63.93 89.4276 63.2376C89.5472 63.4636 89.7165 63.6596 89.9227 63.8109C88.6457 64.037 89.394 65.7669 89.1591 66.673C88.9537 68.1679 88.3855 69.5899 87.5042 70.8148C87.1536 70.3607 86.6855 70.0111 86.1505 69.8039C85.6155 69.5967 85.0341 69.5398 84.4691 69.6392C83.9041 69.7387 83.377 69.9909 82.945 70.3683C82.513 70.7458 82.1924 71.2342 82.018 71.7808C80.5793 70.0013 79.5203 67.946 78.9065 65.7416C76.7981 65.7081 80.7647 74.0602 82.5918 73.8173C82.6305 74.0845 82.7084 74.3445 82.823 74.5889C81.1941 77.7971 80.3659 81.3519 80.4091 84.9496C80.6494 87.8179 83.47 88.6169 85.1342 90.502C86.0716 91.5638 87.702 89.9599 86.6972 88.9391C80.0824 85.3538 83.1304 81.8168 83.6852 75.7523C84.5286 76.5752 87.2146 76.5812 86.9711 74.9849C88.0201 79.3403 89.5107 84.1053 86.6215 88.0577C86.5925 88.1679 86.5929 88.2838 86.6226 88.3938C86.6524 88.5038 86.7104 88.6041 86.791 88.6847C86.8716 88.7653 86.9719 88.8233 87.082 88.853C87.192 88.8827 87.3079 88.8831 87.4181 88.854C91.966 85.6595 90.7762 77.9842 87.817 74.0641C88.0565 73.6414 88.1595 73.155 88.1118 72.6716C89.3211 71.8134 90.2506 70.6177 90.7841 69.2341C91.3175 67.8505 91.4312 66.3403 91.111 64.8924C97.9372 69.8937 103.847 76.5091 102.552 85.5014C102.617 85.7232 102.737 85.9245 102.903 86.0858C103.068 86.2471 103.272 86.3629 103.496 86.4218C103.719 86.4807 103.954 86.4807 104.177 86.4219C104.4 86.3631 104.605 86.2475 104.77 86.0862C109.636 76.5951 98.9344 66.3694 91.0365 62.3035C100.381 56.713 93.8016 38.7839 82.9417 44.0044C82.944 43.8958 82.924 43.788 82.8829 43.6876C82.8418 43.5871 82.7806 43.4961 82.7029 43.4203C82.6252 43.3445 82.5328 43.2854 82.4314 43.2468C82.33 43.2081 82.2217 43.1907 82.1133 43.1956C72.4937 44.7619 71.0938 59.2102 79.8027 63.1532ZM85.5772 74.5749C85.2424 74.6873 84.8818 74.6984 84.5406 74.6069C84.1995 74.5155 83.8928 74.3255 83.659 74.0607C83.3426 73.8679 83.4635 72.9019 82.9179 72.9068C83.077 72.8376 83.219 72.7346 83.3342 72.6048C83.4493 72.4751 83.5347 72.3218 83.5845 72.1556C83.7465 71.778 84.0486 71.4778 84.4273 71.3182C84.806 71.1587 85.2318 71.1522 85.6152 71.3001C85.9986 71.448 86.3098 71.7388 86.4832 72.1113C86.6567 72.4839 86.6789 72.9091 86.5453 73.2978C86.3438 73.855 86.2259 74.1468 86.5398 74.5426C86.2495 74.3597 85.8864 74.4984 85.5772 74.5749ZM86.7451 74.6608C86.8059 74.6856 86.8708 74.6989 86.9365 74.7C86.9258 74.773 86.9329 74.8475 86.9572 74.9171C86.9059 74.8173 86.8335 74.7299 86.7451 74.6608ZM77.7024 48.1892C78.822 46.8221 80.2664 45.7576 81.9035 45.0929C81.56 46.922 84.1864 45.6835 85.1592 45.8034C92.2317 45.0848 95.6977 54.1156 91.3237 59.134C84.1155 67.7828 70.8632 57.0751 77.7024 48.1892Z" fill="#455B9E"/>
<path d="M67.6002 87.9671C68.2154 79.3345 71.1576 70.7349 78.1637 65.1039C78.807 64.5621 77.9863 63.636 77.302 63.9878C74.1107 65.6682 71.3586 68.0745 69.2673 71.0129C67.176 73.9513 65.804 77.3397 65.2616 80.9054C64.6284 82.6509 64.334 91.1877 67.6002 87.9671Z" fill="#455B9E"/>
<path d="M59.5611 102.683C58.3597 99.5819 44.3122 110.18 50.6155 109.49C52.7217 107.167 60.0376 106.056 59.5611 102.683Z" fill="#455B9E"/>
</svg>
